<svg width="30" height="34" viewBox="0 0 30 34" fill="none" xmlns="http://www.w3.org/2000/svg">
<path d="M26.6877 15.1452L26.0871 8.67503C25.8139 5.70156 23.316 3.42542 20.3297 3.42542H9.79056C6.7346 3.42542 4.18129 5.75188 3.90017 8.79744L3.31245 15.1491C3.30214 15.2509 3.29956 15.3566 3.29956 15.4597V23.4678C3.29956 25.3315 4.81014 26.8432 6.67502 26.8432H23.325C25.1887 26.8432 26.7004 25.3327 26.7004 23.4678V15.4597C26.7004 15.354 26.6966 15.2522 26.6875 15.1491L26.6877 15.1452ZM7.26286 8.76115C7.33504 7.94655 8.01816 7.31887 8.83659 7.31887H21.1674C21.9859 7.31887 22.669 7.94526 22.7411 8.76115L23.1935 13.9411H6.81052L7.26286 8.76115ZM7.46393 22.814C6.61584 22.814 5.93016 22.1283 5.93016 21.2802C5.93016 20.4321 6.61584 19.7465 7.46393 19.7465C8.31201 19.7465 8.9977 20.4321 8.9977 21.2802C8.9977 22.1283 8.31201 22.814 7.46393 22.814ZM22.9125 23.055C22.0644 23.055 21.3787 22.3693 21.3787 21.5213C21.3787 20.6732 22.0644 19.9875 22.9125 19.9875C23.7606 19.9875 24.4463 20.6732 24.4463 21.5213C24.4463 22.3693 23.7606 23.055 22.9125 23.055Z" fill="white"/>
<path d="M5.92232 29.8721C5.92232 30.2613 6.23552 30.5745 6.62476 30.5745H8.33127C8.72052 30.5745 9.03371 30.2613 9.03371 29.8721V27.4631H5.91846V29.8721H5.92232Z" fill="white"/>
<path d="M21.3557 29.8721C21.3557 30.2613 21.6689 30.5745 22.0581 30.5745H23.7646C24.1539 30.5745 24.4671 30.2613 24.4671 29.8721V27.4631H21.3518V29.8721H21.3557Z" fill="white"/>
</svg>
