<svg width="167" height="228" viewBox="0 0 167 228" fill="none" xmlns="http://www.w3.org/2000/svg">
<g filter="url(#filter0_d_1205_29690)">
<path d="M68.0773 176.632C57.2803 159.6 45.5775 151.632 32.5773 139.132C19.5771 126.633 12.8706 118.418 7.57733 101.632C2.75628 86.344 3.57744 70.6323 5.57733 60.6324C7.57723 50.6326 16.0298 34.6099 28.5773 22.6324C39.8423 11.8793 48.0053 6.55198 63.0773 2.63243C77.2506 -1.0534 86.3162 -0.697027 100.577 2.63243C116.74 6.40581 126.217 11.0216 138.077 22.6324C150.193 34.4937 157.077 49.6326 159.077 60.6324C161.077 71.6323 161.73 86.2918 157.077 101.632C152.062 118.171 145.577 127.633 133.577 139.132C121.578 150.632 107.638 159.449 96.0773 176.632C89.2036 186.849 83.9998 180 81.5 180C79.0002 180 74.5768 186.885 68.0773 176.632Z" fill="white"/>
<path d="M69.5002 157C76.7386 138.178 59.5004 149.5 46.5002 137C33.5 124.5 59.2939 114.286 54.0006 97.5C49.1796 82.2116 57.5001 80.9999 59.5 71C61.4999 61.0001 72.9526 61.9774 85.5002 50C96.7651 39.2469 50.0056 6.55198 65.0776 2.63243C79.2508 -1.0534 88.3164 -0.697027 102.578 2.63243C118.74 6.40581 128.218 11.0216 140.078 22.6324C152.193 34.4937 159.078 49.6326 161.078 60.6324C163.078 71.6323 163.73 86.2918 159.078 101.632C154.062 118.171 147.577 127.633 135.578 139.132C123.578 150.632 109.638 159.449 98.0776 176.632C91.2039 186.849 83.5 180.5 81.5 180C79.5 179.5 65.0776 168.5 69.5002 157Z" fill="url(#paint0_angular_1205_29690)"/>
<g filter="url(#filter1_d_1205_29690)">
<circle cx="84" cy="82" r="53" fill="#ED2024"/>
</g>
</g>
<g filter="url(#filter2_d_1205_29690)">
<path d="M66.4898 197.4C66.2368 196.16 67.1841 195 68.4494 195H101.4C102.713 195 103.67 196.244 103.333 197.513L97.8945 218.013C97.6619 218.89 96.8685 219.5 95.9614 219.5H72.6331C71.6826 219.5 70.8635 218.831 70.6735 217.9L66.4898 197.4Z" fill="white"/>
</g>
<g filter="url(#filter3_d_1205_29690)">
<path d="M114 82C114 98.5685 100.569 112 84 112C67.4315 112 54 98.5685 54 82C54 65.4315 67.4315 52 84 52C100.569 52 114 65.4315 114 82Z" fill="white"/>
</g>
<defs>
<filter id="filter0_d_1205_29690" x="0" y="0" width="166.599" height="190.406" filterUnits="userSpaceOnUse" color-interpolation-filters="sRGB">
<feFlood flood-opacity="0" result="BackgroundImageFix"/>
<feColorMatrix in="SourceAlpha" type="matrix" values="0 0 0 0 0 0 0 0 0 0 0 0 0 0 0 0 0 0 127 0" result="hardAlpha"/>
<feOffset dy="4"/>
<feGaussianBlur stdDeviation="2"/>
<feComposite in2="hardAlpha" operator="out"/>
<feColorMatrix type="matrix" values="0 0 0 0 0 0 0 0 0 0 0 0 0 0 0 0 0 0 0.25 0"/>
<feBlend mode="normal" in2="BackgroundImageFix" result="effect1_dropShadow_1205_29690"/>
<feBlend mode="normal" in="SourceGraphic" in2="effect1_dropShadow_1205_29690" result="shape"/>
</filter>
<filter id="filter1_d_1205_29690" x="31" y="29" width="115" height="114" filterUnits="userSpaceOnUse" color-interpolation-filters="sRGB">
<feFlood flood-opacity="0" result="BackgroundImageFix"/>
<feColorMatrix in="SourceAlpha" type="matrix" values="0 0 0 0 0 0 0 0 0 0 0 0 0 0 0 0 0 0 127 0" result="hardAlpha"/>
<feOffset dx="5" dy="4"/>
<feGaussianBlur stdDeviation="2"/>
<feComposite in2="hardAlpha" operator="out"/>
<feColorMatrix type="matrix" values="0 0 0 0 0 0 0 0 0 0 0 0 0 0 0 0 0 0 0.25 0"/>
<feBlend mode="normal" in2="BackgroundImageFix" result="effect1_dropShadow_1205_29690"/>
<feBlend mode="normal" in="SourceGraphic" in2="effect1_dropShadow_1205_29690" result="shape"/>
</filter>
<filter id="filter2_d_1205_29690" x="62.4482" y="195" width="44.9531" height="32.5" filterUnits="userSpaceOnUse" color-interpolation-filters="sRGB">
<feFlood flood-opacity="0" result="BackgroundImageFix"/>
<feColorMatrix in="SourceAlpha" type="matrix" values="0 0 0 0 0 0 0 0 0 0 0 0 0 0 0 0 0 0 127 0" result="hardAlpha"/>
<feOffset dy="4"/>
<feGaussianBlur stdDeviation="2"/>
<feComposite in2="hardAlpha" operator="out"/>
<feColorMatrix type="matrix" values="0 0 0 0 0 0 0 0 0 0 0 0 0 0 0 0 0 0 0.25 0"/>
<feBlend mode="normal" in2="BackgroundImageFix" result="effect1_dropShadow_1205_29690"/>
<feBlend mode="normal" in="SourceGraphic" in2="effect1_dropShadow_1205_29690" result="shape"/>
</filter>
<filter id="filter3_d_1205_29690" x="54" y="52" width="69" height="68" filterUnits="userSpaceOnUse" color-interpolation-filters="sRGB">
<feFlood flood-opacity="0" result="BackgroundImageFix"/>
<feColorMatrix in="SourceAlpha" type="matrix" values="0 0 0 0 0 0 0 0 0 0 0 0 0 0 0 0 0 0 127 0" result="hardAlpha"/>
<feOffset dx="5" dy="4"/>
<feGaussianBlur stdDeviation="2"/>
<feComposite in2="hardAlpha" operator="out"/>
<feColorMatrix type="matrix" values="0 0 0 0 0 0 0 0 0 0 0 0 0 0 0 0 0 0 0.25 0"/>
<feBlend mode="normal" in2="BackgroundImageFix" result="effect1_dropShadow_1205_29690"/>
<feBlend mode="normal" in="SourceGraphic" in2="effect1_dropShadow_1205_29690" result="shape"/>
</filter>
<radialGradient id="paint0_angular_1205_29690" cx="0" cy="0" r="1" gradientUnits="userSpaceOnUse" gradientTransform="translate(102.696 91.1236) rotate(90) scale(91.1236 59.9022)">
<stop stop-color="#26B1ED"/>
<stop offset="0.31" stop-color="#C5BBBB"/>
<stop offset="0.525" stop-color="#FF4545"/>
<stop offset="0.68" stop-color="#BF2EC2"/>
</radialGradient>
</defs>
</svg>
