<svg width="70" height="70" viewBox="0 0 70 70" fill="none" xmlns="http://www.w3.org/2000/svg">
<g id="Group 34">
<g id="Group 33">
<rect id="Rectangle 275" width="70" height="70" rx="15" fill="#B1B1B1"/>
</g>
<g id="&#240;&#159;&#166;&#134; icon &#34;share one&#34;">
<path id="Vector" d="M4 2H69V68H4V2Z" fill="white" fill-opacity="0.01"/>
<g id="Group">
<path id="Vector_2" d="M47.3958 23.75C51.1352 23.75 54.1667 20.6719 54.1667 16.875C54.1667 13.078 51.1352 10 47.3958 10C43.6564 10 40.625 13.078 40.625 16.875C40.625 20.6719 43.6564 23.75 47.3958 23.75Z" fill="#B1B1B1" stroke="#E0E0E0" stroke-width="4" stroke-linejoin="round"/>
<path id="Vector_3" d="M17.6041 41.625C21.3435 41.625 24.375 38.5469 24.375 34.75C24.375 30.9531 21.3435 27.875 17.6041 27.875C13.8648 27.875 10.8333 30.9531 10.8333 34.75C10.8333 38.5469 13.8648 41.625 17.6041 41.625Z" fill="#B1B1B1" stroke="#E0E0E0" stroke-width="4" stroke-linejoin="round"/>
<path id="Vector_4" d="M40.6249 20.4149L23.4796 30.9624" stroke="#E0E0E0" stroke-width="4" stroke-linecap="round" stroke-linejoin="round"/>
<path id="Vector_5" d="M23.4796 38.2754L41.5448 49.1145" stroke="#E0E0E0" stroke-width="4" stroke-linecap="round" stroke-linejoin="round"/>
<path id="Vector_6" d="M47.3958 45.75C51.1352 45.75 54.1667 48.8281 54.1667 52.625C54.1667 56.4219 51.1352 59.5 47.3958 59.5C43.6564 59.5 40.625 56.4219 40.625 52.625C40.625 48.8281 43.6564 45.75 47.3958 45.75Z" fill="#B1B1B1" stroke="#E0E0E0" stroke-width="4" stroke-linejoin="round"/>
</g>
</g>
</g>
</svg>
